<svg width="33" height="33" viewBox="0 0 33 33" fill="none" xmlns="http://www.w3.org/2000/svg">
<path d="M24.75 15.7385C25.0038 16.1192 25.2577 16.5 25.3846 17.1346H21.3231C21.3231 17.0077 21.3231 16.7538 21.45 16.5C21.5769 16.2462 21.5769 16.1192 21.8308 15.8654C21.9577 15.6115 22.2115 15.4846 22.4654 15.3577C22.7192 15.2308 23.1 15.1038 23.4808 15.1038C23.9885 15.2308 24.4962 15.3577 24.75 15.7385ZM13.0731 14.85C13.3269 14.5962 13.5808 14.2154 13.5808 13.7077C13.5808 13.4538 13.5808 13.2 13.4538 12.9462C13.3269 12.8192 13.2 12.5654 13.0731 12.5654C12.9462 12.4385 12.6923 12.4385 12.4385 12.3115H9.13846V15.2308H11.9308C12.3115 15.2308 12.6923 15.1038 13.0731 14.85ZM12.0577 17.0077H9.13846V20.4346H12.0577C12.3115 20.4346 12.5654 20.4346 12.8192 20.3077C13.0731 20.3077 13.3269 20.1808 13.4538 20.0538C13.5808 19.9269 13.8346 19.8 13.9615 19.5462C14.0885 19.2923 14.0885 19.0385 14.0885 18.7846C14.0885 18.15 13.9615 17.6423 13.5808 17.3885C13.2 17.1346 12.6923 17.0077 12.0577 17.0077ZM33 6.21923V26.7808C33 30.2077 30.2077 33 26.7808 33H6.21923C2.79231 33 0 30.2077 0 26.7808V6.21923C0 2.79231 2.79231 0 6.21923 0H26.7808C30.2077 0 33 2.79231 33 6.21923ZM20.8154 12.1846H25.8923V10.9154H20.8154V12.1846ZM16.7538 19.0385C16.7538 18.2769 16.6269 17.6423 16.2462 17.0077C15.8654 16.5 15.3577 16.1192 14.5962 15.8654C15.1038 15.6115 15.6115 15.2308 15.8654 14.85C16.1192 14.4692 16.2462 13.9615 16.2462 13.3269C16.2462 12.6923 16.1192 12.3115 15.9923 11.8038C15.7385 11.4231 15.4846 11.0423 15.2308 10.9154C14.85 10.6615 14.4692 10.5346 13.9615 10.4077C13.3269 10.1538 12.8192 10.1538 12.1846 10.1538H6.34615V22.5923H12.4385C12.9462 22.5923 13.5808 22.4654 14.0885 22.3385C14.5962 22.2115 15.1038 21.9577 15.4846 21.7038C15.8654 21.45 16.2462 21.0692 16.5 20.5615C16.6269 20.1808 16.7538 19.6731 16.7538 19.0385ZM21.3231 18.6577H27.7962C27.7962 17.8962 27.7962 17.2615 27.6692 16.6269C27.5423 15.9923 27.2885 15.3577 26.9077 14.9769C26.5269 14.4692 26.0192 14.0885 25.5115 13.8346C24.8769 13.5808 24.2423 13.3269 23.4808 13.3269C22.8462 13.3269 22.2115 13.4538 21.5769 13.7077C21.0692 13.9615 20.5615 14.3423 20.0538 14.7231C19.6731 15.1038 19.2923 15.6115 19.1654 16.2462C18.9115 16.8808 18.7846 17.5154 18.7846 18.15C18.7846 18.7846 18.9115 19.5462 19.1654 20.0538C19.4192 20.6885 19.6731 21.1962 20.0538 21.5769C20.4346 21.9577 20.9423 22.3385 21.45 22.5923C22.0846 22.8462 22.7192 22.9731 23.3538 22.9731C24.3692 22.9731 25.2577 22.7192 26.0192 22.2115C26.7808 21.7038 27.2885 20.9423 27.6692 19.9269H25.5115C25.3846 20.1808 25.2577 20.4346 24.8769 20.6885C24.4962 20.9423 24.1154 21.0692 23.6077 21.0692C22.9731 21.0692 22.3385 20.9423 21.9577 20.5615C21.5769 20.0538 21.3231 19.4192 21.3231 18.6577Z" fill="#DFDFDF"/>
</svg>
