<svg width="27" height="27" viewBox="0 0 27 27" fill="none" xmlns="http://www.w3.org/2000/svg">
<path d="M14.31 12.15C13.77 12.015 13.23 11.745 12.825 11.34C12.42 11.205 12.285 10.8 12.285 10.53C12.285 10.26 12.4199 9.85501 12.6899 9.72001C13.0949 9.45001 13.5 9.18001 13.905 9.31501C14.715 9.31501 15.3899 9.72001 15.7949 10.26L17.01 8.64001C16.605 8.23501 16.2 7.96501 15.7949 7.69501C15.3899 7.42501 14.85 7.29001 14.31 7.29001V5.40001H12.6899V7.29001C12.0149 7.42501 11.34 7.83001 10.8 8.37001C10.26 9.04501 9.85495 9.85501 9.98995 10.665C9.98995 11.475 10.26 12.285 10.8 12.825C11.475 13.5 12.42 13.905 13.23 14.31C13.635 14.445 14.175 14.715 14.58 14.985C14.85 15.255 14.985 15.66 14.985 16.065C14.985 16.47 14.85 16.875 14.58 17.28C14.175 17.685 13.635 17.82 13.23 17.82C12.69 17.82 12.015 17.685 11.61 17.28C11.205 17.01 10.8 16.605 10.53 16.2L9.17995 17.685C9.58495 18.225 9.98995 18.63 10.53 19.035C11.205 19.44 12.015 19.845 12.825 19.845V21.6H14.31V19.575C15.12 19.44 15.795 19.035 16.335 18.495C17.01 17.82 17.4149 16.74 17.4149 15.795C17.4149 14.985 17.1449 14.04 16.4699 13.5C15.7949 12.825 15.12 12.42 14.31 12.15ZM13.5 2.70001C7.55995 2.70001 2.69995 7.56001 2.69995 13.5C2.69995 19.44 7.55995 24.3 13.5 24.3C19.44 24.3 24.2999 19.44 24.2999 13.5C24.2999 7.56001 19.44 2.70001 13.5 2.70001ZM13.5 22.815C8.36995 22.815 4.18495 18.63 4.18495 13.5C4.18495 8.37001 8.36995 4.18501 13.5 4.18501C18.6299 4.18501 22.8149 8.37001 22.8149 13.5C22.8149 18.63 18.6299 22.815 13.5 22.815Z" fill="#231F20"/>
</svg>
