<svg width="33" height="33" viewBox="0 0 33 33" fill="none" xmlns="http://www.w3.org/2000/svg">
<path d="M6.47063 0.00891113C2.91596 0.00891113 0.00668335 2.91813 0.00668335 6.47285V26.5316C0.00668335 30.0863 2.9159 32.9945 6.47063 32.9945H26.5294C30.0841 32.9945 32.9923 30.0863 32.9923 26.5316V6.47285C32.9923 2.91819 30.0841 0.00891113 26.5294 0.00891113H6.47063ZM8.0964 5.4522C9.80079 5.4522 10.8506 6.57109 10.883 8.04187C10.883 9.48018 9.80072 10.6305 8.06344 10.6305H8.03146C6.35951 10.6305 5.27886 9.48024 5.27886 8.04187C5.27886 6.57113 6.39222 5.4522 8.09637 5.4522H8.0964ZM22.784 12.3264C26.0619 12.3264 28.5191 14.4688 28.5191 19.0728V27.6676H23.5377V19.6491C23.5377 17.6341 22.8167 16.2594 21.014 16.2594C19.6377 16.2594 18.8174 17.1859 18.4572 18.081C18.3257 18.4013 18.2933 18.8485 18.2933 19.2965V27.6676H13.3119C13.3119 27.6676 13.3773 14.0844 13.3119 12.6779H18.2944V14.8006C18.9563 13.7793 20.1404 12.3264 22.784 12.3264V12.3264ZM5.5727 12.679H10.5541V27.6677H5.5727V12.679V12.679Z" fill="#DFDFDF"/>
</svg>
