<svg width="37" height="35" viewBox="0 0 37 35" fill="none" xmlns="http://www.w3.org/2000/svg">
<path d="M9.68202 17.5232L10.913 18.7269H0.0473448C0.0236724 18.3334 0 17.9398 0 17.5232C0 17.1065 0.0236724 16.713 0.0473448 16.2963H10.913L9.68202 17.5232Z" fill="url(#paint0_linear)"/>
<path d="M36.5502 16.3195V18.7269H20.3346L19.1036 17.5232L20.3346 16.3195H36.5502Z" fill="url(#paint1_linear)"/>
<path d="M17.707 31.2037V34.9537H11.055V31.2037C12.1203 31.4584 13.2329 31.5741 14.3692 31.5741C15.5291 31.5973 16.6417 31.4584 17.707 31.2037Z" fill="url(#paint2_linear)"/>
<path d="M17.707 25.3472V31.2037C16.6417 31.4583 15.5291 31.5741 14.3692 31.5741C13.2329 31.5741 12.1203 31.4352 11.055 31.2037V18.8426L14.3928 22.1065L17.707 25.3472Z" fill="url(#paint3_linear)"/>
<path d="M17.707 3.86575V9.67593L11.055 16.1806V3.8426C12.1203 3.58797 13.2329 3.47223 14.3692 3.47223C15.5291 3.47223 16.6417 3.61112 17.707 3.86575Z" fill="url(#paint4_linear)"/>
<path d="M17.707 0.069458V3.86575C16.6417 3.61112 15.5291 3.49538 14.3692 3.49538C13.2329 3.49538 12.1203 3.63427 11.055 3.86575V0.069458H17.707Z" fill="url(#paint5_linear)"/>
<path d="M17.707 25.3472V31.2037C16.6417 31.4583 15.5291 31.5741 14.3692 31.5741C13.2329 31.5741 12.1203 31.4352 11.055 31.2037V18.8426L14.3928 22.1065L17.707 25.3472Z" fill="url(#paint6_linear)"/>
<path d="M11.8362 16.3195V18.7269H8.66411L8.02496 17.5463L8.73513 16.3195H11.8362Z" fill="url(#paint7_linear)"/>
<path d="M17.707 3.86575V9.67593L11.055 16.1806V3.8426C12.1203 3.58797 13.2329 3.47223 14.3692 3.47223C15.5291 3.47223 16.6417 3.61112 17.707 3.86575Z" fill="url(#paint8_linear)"/>
<path d="M37 0L26.6078 10.162C25.4242 8.28704 23.8145 6.71296 21.897 5.55556L27.5784 0H37Z" fill="url(#paint9_linear)"/>
<path d="M26.6315 24.8842C25.4479 26.7592 23.8381 28.3333 21.9444 29.4907L14.3928 22.1065L11.055 18.8426L10.913 18.7268L9.68204 17.5231L10.913 16.3194L11.055 16.1805L17.707 9.67591L21.9207 5.55554C23.8381 6.71295 25.4479 8.28702 26.6315 10.162L20.3346 16.3194L19.1037 17.5231L20.3346 18.7268L26.6315 24.8842Z" fill="url(#paint10_linear)"/>
<path d="M36.9763 35H27.5547L21.9207 29.4908C23.8382 28.3334 25.4479 26.7593 26.6078 24.8843L36.9763 35Z" fill="url(#paint11_linear)"/>
<defs>
<linearGradient id="paint0_linear" x1="10.9554" y1="17.5134" x2="0.0369051" y2="17.5134" gradientUnits="userSpaceOnUse">
<stop stop-color="#15EDA5"/>
<stop offset="0.2135" stop-color="#15EAAB"/>
<stop offset="0.4967" stop-color="#16E2BC"/>
<stop offset="0.8177" stop-color="#17D6D7"/>
<stop offset="1" stop-color="#18CDEA"/>
</linearGradient>
<linearGradient id="paint1_linear" x1="19.0983" y1="17.5133" x2="36.5584" y2="17.5133" gradientUnits="userSpaceOnUse">
<stop stop-color="#15EDA5"/>
<stop offset="0.2135" stop-color="#15EAAB"/>
<stop offset="0.4967" stop-color="#16E2BC"/>
<stop offset="0.8177" stop-color="#17D6D7"/>
<stop offset="1" stop-color="#18CDEA"/>
</linearGradient>
<linearGradient id="paint2_linear" x1="14.3773" y1="36.0184" x2="14.3773" y2="29.5103" gradientUnits="userSpaceOnUse">
<stop stop-color="#18CDEA"/>
<stop offset="0.1683" stop-color="#18CAE6"/>
<stop offset="0.3215" stop-color="#18C1DB"/>
<stop offset="0.469" stop-color="#19B1C9"/>
<stop offset="0.613" stop-color="#199BAF"/>
<stop offset="0.7543" stop-color="#1A7F8D"/>
<stop offset="0.8918" stop-color="#1B5D65"/>
<stop offset="1" stop-color="#1C3D3F"/>
</linearGradient>
<linearGradient id="paint3_linear" x1="11.0493" y1="25.216" x2="17.7047" y2="25.216" gradientUnits="userSpaceOnUse">
<stop stop-color="#15EDA5"/>
<stop offset="0.2135" stop-color="#15EAAB"/>
<stop offset="0.4967" stop-color="#16E2BC"/>
<stop offset="0.8177" stop-color="#17D6D7"/>
<stop offset="1" stop-color="#18CDEA"/>
</linearGradient>
<linearGradient id="paint4_linear" x1="11.0493" y1="9.82774" x2="17.7047" y2="9.82774" gradientUnits="userSpaceOnUse">
<stop stop-color="#15EDA5"/>
<stop offset="0.2135" stop-color="#15EAAB"/>
<stop offset="0.4967" stop-color="#16E2BC"/>
<stop offset="0.8177" stop-color="#17D6D7"/>
<stop offset="1" stop-color="#18CDEA"/>
</linearGradient>
<linearGradient id="paint5_linear" x1="14.3773" y1="-0.213713" x2="14.3773" y2="6.29439" gradientUnits="userSpaceOnUse">
<stop stop-color="#18CDEA"/>
<stop offset="0.1393" stop-color="#18C9E5"/>
<stop offset="0.2933" stop-color="#18BED8"/>
<stop offset="0.4544" stop-color="#19ABC2"/>
<stop offset="0.6203" stop-color="#1A91A3"/>
<stop offset="0.7901" stop-color="#1B707B"/>
<stop offset="0.9606" stop-color="#1C474B"/>
<stop offset="1" stop-color="#1C3D3F"/>
</linearGradient>
<linearGradient id="paint6_linear" x1="12.6165" y1="26.7485" x2="17.2172" y2="22.0435" gradientUnits="userSpaceOnUse">
<stop stop-color="#15EDA5" stop-opacity="0"/>
<stop offset="0.1186" stop-color="#15E7A2" stop-opacity="0.1186"/>
<stop offset="0.276" stop-color="#16D698" stop-opacity="0.276"/>
<stop offset="0.4553" stop-color="#17BB88" stop-opacity="0.4553"/>
<stop offset="0.6508" stop-color="#199472" stop-opacity="0.6508"/>
<stop offset="0.857" stop-color="#1A6355" stop-opacity="0.857"/>
<stop offset="1" stop-color="#1C3D3F"/>
</linearGradient>
<linearGradient id="paint7_linear" x1="8.03533" y1="17.5244" x2="11.8341" y2="17.5244" gradientUnits="userSpaceOnUse">
<stop stop-color="#15EDA5" stop-opacity="0"/>
<stop offset="0.0745196" stop-color="#16DE9C" stop-opacity="0.0745196"/>
<stop offset="0.527" stop-color="#19886A" stop-opacity="0.527"/>
<stop offset="0.8457" stop-color="#1B524B" stop-opacity="0.8457"/>
<stop offset="1" stop-color="#1C3D3F"/>
</linearGradient>
<linearGradient id="paint8_linear" x1="12.6162" y1="8.29554" x2="17.2169" y2="13.0005" gradientUnits="userSpaceOnUse">
<stop stop-color="#15EDA5" stop-opacity="0"/>
<stop offset="0.1186" stop-color="#15E7A2" stop-opacity="0.1186"/>
<stop offset="0.276" stop-color="#16D698" stop-opacity="0.276"/>
<stop offset="0.4553" stop-color="#17BB88" stop-opacity="0.4553"/>
<stop offset="0.6508" stop-color="#199472" stop-opacity="0.6508"/>
<stop offset="0.857" stop-color="#1A6355" stop-opacity="0.857"/>
<stop offset="1" stop-color="#1C3D3F"/>
</linearGradient>
<linearGradient id="paint9_linear" x1="32.8713" y1="-0.556435" x2="22.4352" y2="10.116" gradientUnits="userSpaceOnUse">
<stop stop-color="#18CDEA"/>
<stop offset="0.1393" stop-color="#18C9E5"/>
<stop offset="0.2933" stop-color="#18BED8"/>
<stop offset="0.4544" stop-color="#19ABC2"/>
<stop offset="0.6203" stop-color="#1A91A3"/>
<stop offset="0.7901" stop-color="#1B707B"/>
<stop offset="0.9606" stop-color="#1C474B"/>
<stop offset="1" stop-color="#1C3D3F"/>
</linearGradient>
<linearGradient id="paint10_linear" x1="9.68616" y1="17.5243" x2="26.631" y2="17.5243" gradientUnits="userSpaceOnUse">
<stop stop-color="#15EDA5"/>
<stop offset="1" stop-color="#18CDEA"/>
</linearGradient>
<linearGradient id="paint11_linear" x1="32.8171" y1="35.5307" x2="22.4232" y2="24.9013" gradientUnits="userSpaceOnUse">
<stop stop-color="#18CDEA"/>
<stop offset="0.1683" stop-color="#18CAE6"/>
<stop offset="0.3215" stop-color="#18C1DB"/>
<stop offset="0.469" stop-color="#19B1C9"/>
<stop offset="0.613" stop-color="#199BAF"/>
<stop offset="0.7543" stop-color="#1A7F8D"/>
<stop offset="0.8918" stop-color="#1B5D65"/>
<stop offset="1" stop-color="#1C3D3F"/>
</linearGradient>
</defs>
</svg>
