<svg width="37" height="35" viewBox="0 0 37 35" fill="none" xmlns="http://www.w3.org/2000/svg">
<path d="M9.68202 17.5232L10.913 18.7269H0.0473448C0.0236724 18.3334 0 17.9398 0 17.5232C0 17.1065 0.0236724 16.713 0.0473448 16.2963H10.913L9.68202 17.5232Z" fill="#545454"/>
<path d="M36.5501 16.3195V18.7269H20.3345L19.1035 17.5232L20.3345 16.3195H36.5501Z" fill="#545454"/>
<path d="M17.7066 31.2037V34.9537H11.0547V31.2037C12.1199 31.4584 13.2325 31.5741 14.3688 31.5741C15.5288 31.5973 16.6414 31.4584 17.7066 31.2037Z" fill="#545454"/>
<path d="M17.7066 25.3472V31.2037C16.6414 31.4583 15.5288 31.5741 14.3688 31.5741C13.2325 31.5741 12.1199 31.4352 11.0547 31.2037V18.8426L14.3925 22.1065L17.7066 25.3472Z" fill="#545454"/>
<path d="M17.7066 3.86575V9.67593L11.0547 16.1806V3.8426C12.1199 3.58797 13.2325 3.47223 14.3688 3.47223C15.5288 3.47223 16.6414 3.61112 17.7066 3.86575Z" fill="#545454"/>
<path d="M17.7066 0.069458V3.86575C16.6414 3.61112 15.5288 3.49538 14.3688 3.49538C13.2325 3.49538 12.1199 3.63427 11.0547 3.86575V0.069458H17.7066Z" fill="#545454"/>
<path d="M17.7076 25.3472V31.2037C16.6424 31.4583 15.5297 31.5741 14.3698 31.5741C13.2335 31.5741 12.1209 31.4352 11.0557 31.2037V18.8426L14.3935 22.1065L17.7076 25.3472Z" fill="#545454"/>
<path d="M11.8366 16.3195V18.7269H8.66454L8.02539 17.5463L8.73556 16.3195H11.8366Z" fill="#545454"/>
<path d="M17.7076 3.86575V9.67593L11.0557 16.1806V3.8426C12.1209 3.58797 13.2335 3.47223 14.3698 3.47223C15.5297 3.47223 16.6424 3.61112 17.7076 3.86575Z" fill="#545454"/>
<path d="M36.9995 0L26.6073 10.162C25.4237 8.28704 23.8139 6.71296 21.8965 5.55556L27.5779 0H36.9995Z" fill="#545454"/>
<path d="M26.6311 24.8842C25.4475 26.7592 23.8377 28.3333 21.944 29.4907L14.3925 22.1065L11.0546 18.8426L10.9126 18.7268L9.68164 17.5231L10.9126 16.3194L11.0546 16.1805L17.7066 9.67591L21.9203 5.55554C23.8377 6.71295 25.4475 8.28702 26.6311 10.162L20.3342 16.3194L19.1033 17.5231L20.3342 18.7268L26.6311 24.8842Z" fill="#545454"/>
<path d="M36.9756 35H27.554L21.9199 29.4908C23.8374 28.3334 25.4471 26.7593 26.6071 24.8843L36.9756 35Z" fill="#545454"/>
</svg>
